<mxfile host="Electron" agent="Mozilla/5.0 (X11; Linux x86_64) AppleWebKit/537.36 (KHTML, like Gecko) draw.io/24.7.8 Chrome/128.0.6613.36 Electron/32.0.1 Safari/537.36" version="24.7.8">
  <diagram name="Страница — 1" id="PxHAXqXhZl92Cq7jBzM3">
    <mxGraphModel dx="1185" dy="682" grid="1" gridSize="10" guides="1" tooltips="1" connect="1" arrows="1" fold="1" page="1" pageScale="1" pageWidth="827" pageHeight="1169" math="0" shadow="0">
      <root>
        <mxCell id="0" />
        <mxCell id="1" parent="0" />
        <mxCell id="irzTSZK2bE28I-efC0GO-2" value="Gateway" style="rounded=0;whiteSpace=wrap;html=1;" parent="1" vertex="1">
          <mxGeometry x="120" y="120" width="70" height="200" as="geometry" />
        </mxCell>
        <mxCell id="irzTSZK2bE28I-efC0GO-3" value="" style="endArrow=classic;html=1;rounded=0;" parent="1" edge="1">
          <mxGeometry width="50" height="50" relative="1" as="geometry">
            <mxPoint x="80" y="160" as="sourcePoint" />
            <mxPoint x="120" y="160" as="targetPoint" />
          </mxGeometry>
        </mxCell>
        <mxCell id="irzTSZK2bE28I-efC0GO-4" value="" style="endArrow=classic;html=1;rounded=0;" parent="1" edge="1">
          <mxGeometry width="50" height="50" relative="1" as="geometry">
            <mxPoint x="80" y="240" as="sourcePoint" />
            <mxPoint x="120" y="240" as="targetPoint" />
          </mxGeometry>
        </mxCell>
        <mxCell id="irzTSZK2bE28I-efC0GO-5" value="ShortURL" style="text;html=1;align=center;verticalAlign=middle;whiteSpace=wrap;rounded=0;" parent="1" vertex="1">
          <mxGeometry x="20" y="220" width="60" height="30" as="geometry" />
        </mxCell>
        <mxCell id="irzTSZK2bE28I-efC0GO-6" value="LongURL" style="text;html=1;align=center;verticalAlign=middle;whiteSpace=wrap;rounded=0;" parent="1" vertex="1">
          <mxGeometry x="20" y="140" width="60" height="30" as="geometry" />
        </mxCell>
        <mxCell id="irzTSZK2bE28I-efC0GO-7" value="Shortener" style="rounded=1;whiteSpace=wrap;html=1;" parent="1" vertex="1">
          <mxGeometry x="230" y="120" width="120" height="60" as="geometry" />
        </mxCell>
        <mxCell id="irzTSZK2bE28I-efC0GO-8" value="Guardian" style="rounded=1;whiteSpace=wrap;html=1;" parent="1" vertex="1">
          <mxGeometry x="230" y="250" width="120" height="60" as="geometry" />
        </mxCell>
        <mxCell id="irzTSZK2bE28I-efC0GO-9" value="" style="endArrow=classic;html=1;rounded=0;" parent="1" edge="1">
          <mxGeometry width="50" height="50" relative="1" as="geometry">
            <mxPoint x="190" y="279.86" as="sourcePoint" />
            <mxPoint x="230" y="279.86" as="targetPoint" />
          </mxGeometry>
        </mxCell>
        <mxCell id="irzTSZK2bE28I-efC0GO-10" value="" style="endArrow=classic;html=1;rounded=0;" parent="1" edge="1">
          <mxGeometry width="50" height="50" relative="1" as="geometry">
            <mxPoint x="190" y="160" as="sourcePoint" />
            <mxPoint x="230" y="160" as="targetPoint" />
          </mxGeometry>
        </mxCell>
        <mxCell id="irzTSZK2bE28I-efC0GO-11" value="Interval distribution" style="rounded=1;whiteSpace=wrap;html=1;" parent="1" vertex="1">
          <mxGeometry x="390" y="120" width="120" height="60" as="geometry" />
        </mxCell>
        <mxCell id="irzTSZK2bE28I-efC0GO-12" value="" style="endArrow=classic;html=1;rounded=0;" parent="1" edge="1">
          <mxGeometry width="50" height="50" relative="1" as="geometry">
            <mxPoint x="350" y="140" as="sourcePoint" />
            <mxPoint x="390" y="140" as="targetPoint" />
          </mxGeometry>
        </mxCell>
        <mxCell id="irzTSZK2bE28I-efC0GO-14" value="" style="endArrow=classic;html=1;rounded=0;entryX=1.005;entryY=0.667;entryDx=0;entryDy=0;entryPerimeter=0;exitX=0.013;exitY=0.667;exitDx=0;exitDy=0;exitPerimeter=0;" parent="1" edge="1">
          <mxGeometry width="50" height="50" relative="1" as="geometry">
            <mxPoint x="390.96000000000004" y="159.99999999999991" as="sourcePoint" />
            <mxPoint x="350" y="159.99999999999991" as="targetPoint" />
          </mxGeometry>
        </mxCell>
        <mxCell id="irzTSZK2bE28I-efC0GO-15" value="DB" style="shape=cylinder3;whiteSpace=wrap;html=1;boundedLbl=1;backgroundOutline=1;size=15;" parent="1" vertex="1">
          <mxGeometry x="230" y="330" width="40" height="60" as="geometry" />
        </mxCell>
        <mxCell id="irzTSZK2bE28I-efC0GO-16" value="" style="endArrow=classic;html=1;rounded=0;entryX=0.5;entryY=0;entryDx=0;entryDy=0;exitX=0.833;exitY=1;exitDx=0;exitDy=0;exitPerimeter=0;" parent="1" source="irzTSZK2bE28I-efC0GO-8" target="irzTSZK2bE28I-efC0GO-18" edge="1">
          <mxGeometry width="50" height="50" relative="1" as="geometry">
            <mxPoint x="433.96000000000004" y="319.9999999999999" as="sourcePoint" />
            <mxPoint x="393" y="319.9999999999999" as="targetPoint" />
          </mxGeometry>
        </mxCell>
        <mxCell id="irzTSZK2bE28I-efC0GO-17" value="" style="endArrow=classic;html=1;rounded=0;entryX=1.005;entryY=0.667;entryDx=0;entryDy=0;entryPerimeter=0;exitX=0.167;exitY=1;exitDx=0;exitDy=0;exitPerimeter=0;" parent="1" source="irzTSZK2bE28I-efC0GO-8" edge="1">
          <mxGeometry width="50" height="50" relative="1" as="geometry">
            <mxPoint x="290.96000000000004" y="329.9999999999999" as="sourcePoint" />
            <mxPoint x="250" y="329.9999999999999" as="targetPoint" />
          </mxGeometry>
        </mxCell>
        <mxCell id="irzTSZK2bE28I-efC0GO-18" value="Сache" style="whiteSpace=wrap;html=1;aspect=fixed;" parent="1" vertex="1">
          <mxGeometry x="310" y="340" width="40" height="40" as="geometry" />
        </mxCell>
        <mxCell id="irzTSZK2bE28I-efC0GO-20" value="Data bus" style="shape=dataStorage;whiteSpace=wrap;html=1;fixedSize=1;rotation=0;" parent="1" vertex="1">
          <mxGeometry x="210" y="202" width="170" height="30" as="geometry" />
        </mxCell>
        <mxCell id="irzTSZK2bE28I-efC0GO-21" value="" style="endArrow=classic;html=1;rounded=0;entryX=0.442;entryY=-0.001;entryDx=0;entryDy=0;entryPerimeter=0;exitX=0.462;exitY=1.011;exitDx=0;exitDy=0;exitPerimeter=0;" parent="1" edge="1">
          <mxGeometry width="50" height="50" relative="1" as="geometry">
            <mxPoint x="260.29999999999995" y="180.68999999999997" as="sourcePoint" />
            <mxPoint x="260.00000000000006" y="202.00000000000003" as="targetPoint" />
          </mxGeometry>
        </mxCell>
        <mxCell id="irzTSZK2bE28I-efC0GO-22" value="" style="endArrow=classic;html=1;rounded=0;entryX=0.442;entryY=-0.001;entryDx=0;entryDy=0;entryPerimeter=0;" parent="1" edge="1">
          <mxGeometry width="50" height="50" relative="1" as="geometry">
            <mxPoint x="260" y="232" as="sourcePoint" />
            <mxPoint x="260" y="250" as="targetPoint" />
          </mxGeometry>
        </mxCell>
      </root>
    </mxGraphModel>
  </diagram>
</mxfile>
